<svg xmlns="http://www.w3.org/2000/svg" xmlns:xlink="http://www.w3.org/1999/xlink" width="1080" zoomAndPan="magnify" viewBox="0 0 810 809.999993" height="1080" preserveAspectRatio="xMidYMid meet" version="1.0"><defs><g/><clipPath id="a627e9e97b"><path d="M 0.160156 18 L 1 18 L 1 19 L 0.160156 19 Z M 0.160156 18 " clip-rule="nonzero"/></clipPath><clipPath id="c1b68de423"><rect x="0" width="562" y="0" height="26"/></clipPath></defs><path fill="#363536" d="M 104.023438 340.851562 L 104.132812 340.90625 L 150.878906 426.402344 L 166.425781 454.714844 C 168.617188 458.730469 171.769531 463.699219 173.292969 468.058594 C 173.578125 468.871094 171.804688 469.6875 171.175781 470.082031 C 166.429688 473.0625 161.386719 475.578125 156.550781 478.378906 L 125.410156 496.566406 L 111.308594 504.867188 C 110.558594 505.304688 107.195312 507.433594 106.679688 507.46875 C 97.402344 508.09375 87.941406 507.546875 78.621094 507.722656 C 76.632812 507.761719 74.5625 507.734375 72.574219 507.636719 C 73.847656 506.273438 76.488281 500.285156 77.425781 498.320312 C 80.644531 491.597656 83.777344 484.835938 86.832031 478.042969 C 87.433594 476.832031 89.898438 472.585938 89.214844 471.628906 C 89.121094 471.652344 89.023438 471.667969 88.929688 471.699219 C 87.8125 472.058594 86.664062 472.75 85.578125 473.226562 C 81.445312 475.035156 57.390625 485.589844 55.863281 487.167969 C 54.546875 488.523438 53.332031 491.351562 52.386719 493.0625 C 49.707031 497.898438 46.992188 502.6875 44.550781 507.644531 C 42.933594 507.742188 41.183594 507.75 39.5625 507.722656 C 30.472656 507.582031 21.246094 507.949219 12.171875 507.65625 C 14.257812 504.792969 17.433594 498.59375 19.21875 495.269531 L 29.15625 476.9375 L 76.722656 389.75 C 82.070312 379.761719 87.496094 369.820312 93.003906 359.921875 C 94.644531 356.90625 101.964844 342.292969 104.023438 340.851562 Z M 104.210938 438.359375 C 105.457031 440.785156 106.964844 443.113281 108.195312 445.507812 C 110.171875 449.34375 112.121094 453.066406 114.183594 456.863281 C 114.933594 458.277344 115.746094 459.734375 116.371094 461.207031 C 115.402344 465.226562 113.675781 468.734375 112.960938 473.015625 C 116.152344 472.132812 137.410156 460.507812 138.480469 458.660156 C 138.203125 457.660156 135.394531 452.460938 134.789062 451.289062 C 129.882812 441.78125 124.417969 432.4375 119.292969 423.042969 L 110.472656 406.796875 C 109.3125 404.605469 105.585938 397.230469 104.109375 395.492188 C 102.308594 397.191406 100.191406 401.96875 98.871094 404.355469 L 86.769531 426.628906 C 83.042969 433.554688 79.046875 440.375 75.632812 447.460938 C 74.996094 448.78125 73.734375 450.335938 73.597656 451.796875 L 73.710938 452.097656 C 73.640625 452.085938 101.644531 439.371094 104.210938 438.359375 Z M 104.210938 438.359375 " fill-opacity="1" fill-rule="nonzero"/><path fill="#363536" d="M 131.222656 296.382812 C 131.875 296.769531 133.082031 298.902344 133.476562 299.59375 L 222.953125 459.042969 L 239.644531 488.785156 C 242.027344 493.164062 244.484375 497.503906 247.007812 501.800781 C 248.175781 503.835938 248.988281 505.710938 250.390625 507.632812 C 247.355469 507.910156 241.890625 507.722656 238.617188 507.71875 L 216.289062 507.71875 L 146.519531 507.707031 L 143.519531 507.601562 C 145.359375 506.910156 148.007812 505.226562 149.800781 504.210938 C 154.128906 501.757812 158.441406 499.28125 162.734375 496.777344 L 175.878906 489.144531 C 177.550781 488.1875 182.90625 485.375 183.980469 484.285156 C 186.785156 486.820312 188.800781 492.597656 191.144531 495.480469 C 193.710938 496.316406 196.378906 496.839844 199.058594 497.566406 C 204.433594 499.023438 209.90625 500.660156 215.441406 501.453125 C 215.714844 501.492188 216.105469 501.097656 216.300781 500.921875 L 216.304688 500.660156 C 215.070312 499.039062 213.777344 496.210938 212.726562 494.289062 L 204.949219 479.964844 C 203.5 477.273438 201.699219 474.652344 200.175781 471.953125 C 196.667969 465.6875 193.207031 459.398438 189.789062 453.082031 L 133.121094 352.019531 C 131.6875 349.492188 130.386719 346.894531 128.949219 344.375 C 127.320312 341.515625 116.820312 324.402344 116.78125 322.449219 C 116.769531 321.851562 117.167969 321.0625 117.421875 320.527344 C 118.53125 318.191406 119.9375 315.925781 121.148438 313.632812 C 122.835938 310.441406 124.609375 307.308594 126.347656 304.144531 C 127.277344 302.453125 128.125 300.703125 129.144531 299.058594 C 129.753906 298.074219 130.324219 297.132812 131.222656 296.382812 Z M 131.222656 296.382812 " fill-opacity="1" fill-rule="nonzero"/><path fill="#3f3f41" d="M 581.339844 421.683594 C 586.183594 420.902344 592.449219 422.597656 597.363281 423.113281 C 605.910156 424.007812 613.050781 432.636719 612.390625 440.984375 C 612.035156 445.457031 613.292969 469.363281 612.09375 471.691406 C 610.703125 472.808594 609.132812 472.816406 607.433594 472.886719 C 602.167969 473.105469 603.039062 471.199219 603.191406 466.949219 C 596.328125 475.769531 569.429688 475.832031 560.726562 469.101562 C 555.953125 465.410156 555.789062 463.457031 554.875 458.023438 C 555.589844 453.460938 556.382812 449.695312 560.453125 446.773438 C 571.085938 439.148438 591.175781 441.59375 603.304688 443.191406 C 603.242188 439.796875 603.40625 436.988281 601.101562 434.285156 C 598.347656 431.238281 593.128906 429.652344 589.101562 429.625 C 578.910156 429.554688 573.535156 428.316406 565.644531 435.535156 C 562.792969 434.421875 560.628906 433.507812 557.847656 432.199219 C 561.890625 423.441406 572.976562 422.523438 581.339844 421.683594 Z M 564.21875 457.921875 C 564.984375 460.671875 565.644531 463.035156 568.503906 464.402344 C 574.507812 467.269531 582.851562 466.769531 589.148438 466.003906 C 599.839844 462.8125 603.050781 461.832031 603.261719 449.699219 C 594.847656 448.828125 586.378906 448.625 577.933594 449.089844 C 571.4375 449.71875 566.113281 450.890625 564.21875 457.921875 Z M 564.21875 457.921875 " fill-opacity="1" fill-rule="nonzero"/><path fill="#3f3f41" d="M 466.191406 421.339844 C 466.734375 421.300781 467.277344 421.28125 467.824219 421.28125 C 476.355469 421.289062 486.742188 423.945312 492.589844 430.351562 C 498.636719 436.96875 498.816406 441.804688 498.761719 450.125 C 481.664062 450.148438 463.617188 449.757812 446.648438 450.019531 C 446.855469 452.527344 447.292969 454.039062 448.414062 456.285156 C 450.496094 460.375 454.140625 463.449219 458.523438 464.808594 C 466.742188 467.441406 476.570312 466.800781 484.261719 462.910156 C 485.972656 462.355469 488.773438 460.039062 489.9375 458.507812 C 492.976562 460.105469 494.472656 461.054688 497.023438 463.332031 C 483.886719 479.359375 441.726562 478.09375 437.847656 453.570312 C 435.441406 438.355469 442.132812 427.566406 457 422.753906 C 459.476562 421.953125 463.152344 421.988281 465.824219 421.421875 Z M 446.851562 443.136719 C 455.140625 443.335938 464.867188 443.167969 473.316406 443.121094 C 478.34375 443.09375 484.542969 443.230469 489.472656 443.019531 C 487.839844 437.613281 486.726562 434.941406 481.390625 431.832031 C 477.359375 429.480469 468.179688 429.066406 463.679688 429.757812 C 455.648438 430.5625 448.4375 434.46875 446.851562 443.136719 Z M 446.851562 443.136719 " fill-opacity="1" fill-rule="nonzero"/><path fill="#3f3f41" d="M 309.144531 461.15625 C 312.183594 452.21875 316.824219 442.070312 320.480469 433.328125 C 321.355469 431.238281 323.847656 425.410156 324.898438 423.867188 C 326.96875 422.800781 331.648438 423.054688 334.15625 423.035156 C 333.65625 425.171875 331.816406 429.148438 330.914062 431.449219 L 318.738281 459.195312 C 317.417969 462.210938 314.148438 470.273438 312.648438 472.648438 C 310 472.753906 308.070312 472.746094 305.425781 472.625 C 303.070312 468.3125 289.628906 436.257812 289.144531 435.878906 L 288.613281 435.972656 C 287.273438 438.269531 285.28125 443.320312 284.132812 445.949219 C 280.335938 454.636719 276.914062 464.0625 272.921875 472.625 C 270.410156 472.660156 267.902344 472.652344 265.394531 472.597656 C 261.707031 466.257812 258.292969 456.914062 255.175781 450.125 C 253.3125 446.066406 243.429688 425.699219 243.90625 423.378906 L 244.53125 423.15625 C 246.042969 423.085938 251.582031 422.722656 252.582031 423.296875 C 254.398438 424.34375 257.726562 433.746094 258.492188 435.554688 L 269.207031 461.207031 C 270.242188 458.332031 271.644531 455.316406 272.847656 452.472656 C 276.910156 442.949219 280.542969 433.207031 284.863281 423.800781 C 285.191406 423.082031 289.277344 422.882812 290.179688 422.996094 C 291.953125 423.222656 292.949219 422.914062 293.652344 424.691406 C 298.515625 436.976562 304.308594 448.871094 309.144531 461.15625 Z M 309.144531 461.15625 " fill-opacity="1" fill-rule="nonzero"/><path fill="#3f3f41" d="M 746.445312 398.808594 L 755.558594 398.789062 C 755.84375 408.738281 755.621094 419.78125 755.628906 429.828125 C 762.484375 422.949219 768.632812 421.554688 778.40625 421.40625 C 780.050781 421.574219 781.863281 421.992188 783.492188 422.164062 C 806.175781 424.554688 803.144531 443.246094 803.019531 460.363281 C 802.996094 463.269531 803.457031 469.910156 802.542969 472.164062 C 801.25 473.015625 795.59375 472.605469 793.777344 472.558594 C 793.539062 464.140625 793.6875 455.054688 793.714844 446.597656 C 793.765625 442.242188 793.042969 437.144531 789.875 434 C 782.332031 426.507812 758.78125 428.484375 756.082031 440.269531 C 755.378906 443.339844 755.582031 450.097656 755.585938 453.417969 L 755.605469 472.683594 C 752.628906 472.726562 749.480469 472.660156 746.492188 472.636719 C 745.964844 448.800781 746.292969 422.808594 746.445312 398.808594 Z M 746.445312 398.808594 " fill-opacity="1" fill-rule="nonzero"/><path fill="#3f3f41" d="M 394.589844 421.402344 C 395.363281 421.355469 397.058594 421.238281 397.773438 421.308594 C 408.324219 422.308594 416.246094 422.8125 423.699219 430.925781 C 422.390625 432.550781 418.949219 435.089844 417.167969 436.222656 C 412.246094 431.855469 409.527344 429.6875 402.0625 429.671875 C 397.730469 429.75 383.65625 428.597656 381.074219 432.890625 C 374.101562 444.496094 397.140625 442.949219 400.203125 443.128906 C 410.148438 443.714844 425.566406 444.835938 426.113281 457.269531 C 426.265625 460.859375 424.925781 464.351562 422.410156 466.917969 C 416.085938 473.308594 404.839844 473.769531 396.484375 473.730469 C 389.582031 473.824219 382.894531 472.691406 376.699219 469.457031 C 375.402344 468.824219 374.175781 467.878906 372.988281 467.132812 C 367.027344 463.390625 370.804688 459.730469 375.882812 458.277344 C 375.980469 458.25 376.738281 458.195312 376.753906 458.207031 C 378.574219 459.992188 380.296875 461.949219 382.375 463.445312 C 389.332031 467.09375 400.464844 467.265625 407.984375 465.613281 C 410.605469 464.921875 414.441406 464.191406 415.882812 461.671875 C 417.789062 458.335938 417.167969 454.753906 413.410156 453.179688 C 406.988281 450.535156 400.375 451.523438 393.605469 450.855469 C 385.992188 449.972656 373.335938 449.300781 371.023438 440.191406 C 368.171875 428.945312 378.527344 423.757812 387.714844 422.347656 C 389.894531 422.011719 392.085938 421.917969 394.238281 421.476562 Z M 394.589844 421.402344 " fill-opacity="1" fill-rule="nonzero"/><path fill="#3f3f41" d="M 702.460938 421.375 C 705.5 421.015625 709.746094 422.089844 712.875 422.460938 C 718.980469 423.1875 728.613281 427.207031 731.5 433.140625 C 730.996094 434.429688 726.164062 436.445312 724.675781 437.160156 C 722.320312 435.59375 720.085938 432.957031 717.425781 431.734375 C 711.265625 428.894531 703.683594 429.519531 697.097656 429.902344 C 692.15625 430.191406 684.542969 435.277344 683.003906 440.078125 C 675.546875 463.382812 698.4375 471.03125 717.015625 463.839844 C 720.554688 462.277344 722.117188 460.953125 724.515625 457.949219 C 726.84375 458.859375 729.972656 460.769531 732.09375 462.113281 C 728.753906 468.644531 720.300781 471.898438 713.457031 473.003906 C 702.511719 474.769531 690.800781 474.132812 681.390625 467.664062 C 670.539062 460.277344 668.964844 443.132812 676.503906 432.878906 C 683.40625 423.492188 691.996094 422.871094 702.460938 421.375 Z M 702.460938 421.375 " fill-opacity="1" fill-rule="nonzero"/><path fill="#3f3f41" d="M 540.203125 421.671875 C 541.628906 421.21875 546.105469 421.996094 547.871094 422.230469 C 547.871094 425.011719 547.847656 427.792969 547.800781 430.578125 C 545.667969 430.101562 543.757812 430.097656 541.46875 430.175781 C 527.941406 430.621094 520.398438 435.550781 522.265625 449.988281 C 522.855469 454.546875 521.839844 465.710938 522.125 470.894531 C 522.269531 473.492188 516.664062 472.625 514.871094 472.601562 C 514.183594 472.609375 513.785156 472.582031 513.097656 472.519531 C 512.296875 471.390625 512.628906 427.761719 512.691406 423.359375 C 520.222656 422.757812 522.765625 420.835938 521.871094 429.613281 C 522.019531 429.414062 522.167969 429.21875 522.320312 429.027344 C 526.449219 423.753906 534.011719 422.421875 540.203125 421.671875 Z M 540.203125 421.671875 " fill-opacity="1" fill-rule="nonzero"/><path fill="#3f3f41" d="M 656.808594 421.65625 C 656.914062 421.644531 657.019531 421.632812 657.125 421.621094 C 665.675781 421.285156 665.425781 423.296875 665.191406 430.167969 C 659.324219 429.089844 648.039062 430.195312 643.394531 434.445312 C 639.308594 438.1875 638.734375 443.648438 638.730469 448.789062 C 638.71875 456.761719 639.011719 464.78125 638.636719 472.710938 L 633.332031 472.671875 C 632.25 472.675781 630.941406 472.800781 629.996094 472.367188 C 629.609375 469.722656 629.679688 455.253906 629.785156 452.214844 C 630.054688 444.277344 629.277344 431.207031 630.265625 423.640625 C 632.488281 423.429688 636.78125 422.636719 638.484375 423.703125 C 639.832031 425.488281 639.28125 427.59375 639.097656 429.921875 C 643.027344 423.683594 650.117188 422.738281 656.808594 421.65625 Z M 656.808594 421.65625 " fill-opacity="1" fill-rule="nonzero"/><path fill="#3f3f41" d="M 346.042969 423.144531 C 348.4375 422.953125 351.601562 423.007812 354.058594 422.980469 C 354.410156 427.289062 354.476562 470.433594 353.785156 472.535156 L 353.125 472.730469 L 345.222656 472.632812 C 345.226562 469.714844 344.703125 466.597656 344.71875 463.78125 C 344.796875 452.246094 344.304688 440.453125 345.054688 428.960938 C 345.121094 427.910156 345.253906 423.960938 345.382812 423.402344 Z M 346.042969 423.144531 " fill-opacity="1" fill-rule="nonzero"/><path fill="#3f3f41" d="M 347.003906 402.066406 L 354.027344 402.035156 C 354.179688 404.210938 354.429688 410.390625 353.671875 412.195312 L 352.835938 412.234375 C 350.175781 412.28125 347.316406 412.410156 344.6875 412.117188 C 344.777344 409.511719 344.078125 404.421875 345.320312 402.46875 C 345.527344 402.140625 346.488281 402.132812 347.003906 402.066406 Z M 347.003906 402.066406 " fill-opacity="1" fill-rule="nonzero"/><g transform="matrix(1, 0, 0, 1, 248, 488)"><g clip-path="url(#c1b68de423)"><g clip-path="url(#a627e9e97b)"><g fill="#3f3f41" fill-opacity="1"><g transform="translate(0.304293, 18.548171)"><g/></g></g></g><g fill="#3f3f41" fill-opacity="1"><g transform="translate(11.173693, 18.548171)"><g><path d="M 0.21875 -15.453125 L 12.953125 -15.453125 L 12.953125 -14.078125 L 7.359375 -14.078125 L 7.359375 0 L 5.8125 0 L 5.8125 -14.078125 L 0.21875 -14.078125 Z M 0.21875 -15.453125 "/></g></g></g><g fill="#3f3f41" fill-opacity="1"><g transform="translate(29.460598, 18.548171)"><g><path d="M 1.96875 -15.453125 L 12.703125 -15.453125 L 12.703125 -14.078125 L 3.515625 -14.078125 L 3.515625 -8.390625 L 11.5 -8.390625 L 11.5 -7.09375 L 3.515625 -7.09375 L 3.515625 -1.375 L 12.703125 -1.375 L 12.703125 0 L 1.96875 0 Z M 1.96875 -15.453125 "/></g></g></g><g fill="#3f3f41" fill-opacity="1"><g transform="translate(47.672205, 18.548171)"><g><path d="M 1.140625 -7.734375 C 1.140625 -8.828125 1.335938 -9.84375 1.734375 -10.78125 C 2.128906 -11.726562 2.65625 -12.546875 3.3125 -13.234375 C 3.976562 -13.921875 4.75 -14.460938 5.625 -14.859375 C 6.5 -15.253906 7.421875 -15.453125 8.390625 -15.453125 C 8.984375 -15.453125 9.578125 -15.367188 10.171875 -15.203125 C 10.773438 -15.035156 11.347656 -14.785156 11.890625 -14.453125 C 12.429688 -14.128906 12.9375 -13.726562 13.40625 -13.25 C 13.882812 -12.769531 14.296875 -12.210938 14.640625 -11.578125 L 13.34375 -10.8125 C 13.0625 -11.375 12.726562 -11.859375 12.34375 -12.265625 C 11.96875 -12.671875 11.554688 -13.003906 11.109375 -13.265625 C 10.671875 -13.535156 10.21875 -13.738281 9.75 -13.875 C 9.289062 -14.007812 8.835938 -14.078125 8.390625 -14.078125 C 7.609375 -14.078125 6.867188 -13.90625 6.171875 -13.5625 C 5.484375 -13.21875 4.882812 -12.757812 4.375 -12.1875 C 3.875 -11.613281 3.472656 -10.941406 3.171875 -10.171875 C 2.867188 -9.410156 2.71875 -8.597656 2.71875 -7.734375 C 2.71875 -6.890625 2.863281 -6.078125 3.15625 -5.296875 C 3.445312 -4.523438 3.847656 -3.847656 4.359375 -3.265625 C 4.878906 -2.679688 5.484375 -2.21875 6.171875 -1.875 C 6.867188 -1.539062 7.613281 -1.375 8.40625 -1.375 C 9.375 -1.375 10.304688 -1.660156 11.203125 -2.234375 C 12.097656 -2.804688 12.8125 -3.617188 13.34375 -4.671875 L 14.640625 -3.875 C 14.328125 -3.289062 13.945312 -2.757812 13.5 -2.28125 C 13.050781 -1.8125 12.554688 -1.40625 12.015625 -1.0625 C 11.472656 -0.71875 10.894531 -0.453125 10.28125 -0.265625 C 9.664062 -0.0859375 9.039062 0 8.40625 0 C 7.425781 0 6.492188 -0.195312 5.609375 -0.59375 C 4.734375 -1 3.96875 -1.546875 3.3125 -2.234375 C 2.65625 -2.921875 2.128906 -3.734375 1.734375 -4.671875 C 1.335938 -5.617188 1.140625 -6.640625 1.140625 -7.734375 Z M 1.140625 -7.734375 "/></g></g></g><g fill="#3f3f41" fill-opacity="1"><g transform="translate(67.979165, 18.548171)"><g><path d="M 1.96875 -15.453125 L 3.71875 -15.453125 L 12.796875 -2.375 L 12.796875 -15.453125 L 14.34375 -15.453125 L 14.34375 0 L 12.59375 0 L 3.5 -13.09375 L 3.5 0 L 1.96875 0 Z M 1.96875 -15.453125 "/></g></g></g><g fill="#3f3f41" fill-opacity="1"><g transform="translate(88.884759, 18.548171)"><g><path d="M 1.140625 -7.734375 C 1.140625 -8.828125 1.335938 -9.847656 1.734375 -10.796875 C 2.128906 -11.753906 2.65625 -12.570312 3.3125 -13.25 C 3.976562 -13.925781 4.75 -14.460938 5.625 -14.859375 C 6.5 -15.253906 7.421875 -15.453125 8.390625 -15.453125 C 9.367188 -15.453125 10.296875 -15.253906 11.171875 -14.859375 C 12.046875 -14.460938 12.8125 -13.925781 13.46875 -13.25 C 14.125 -12.570312 14.644531 -11.753906 15.03125 -10.796875 C 15.425781 -9.847656 15.625 -8.828125 15.625 -7.734375 C 15.625 -6.640625 15.425781 -5.617188 15.03125 -4.671875 C 14.644531 -3.722656 14.125 -2.898438 13.46875 -2.203125 C 12.8125 -1.515625 12.046875 -0.972656 11.171875 -0.578125 C 10.296875 -0.191406 9.367188 0 8.390625 0 C 7.421875 0 6.5 -0.191406 5.625 -0.578125 C 4.75 -0.972656 3.976562 -1.515625 3.3125 -2.203125 C 2.65625 -2.898438 2.128906 -3.722656 1.734375 -4.671875 C 1.335938 -5.617188 1.140625 -6.640625 1.140625 -7.734375 Z M 8.390625 -14.078125 C 7.585938 -14.078125 6.84375 -13.90625 6.15625 -13.5625 C 5.476562 -13.21875 4.878906 -12.757812 4.359375 -12.1875 C 3.847656 -11.613281 3.445312 -10.941406 3.15625 -10.171875 C 2.863281 -9.410156 2.71875 -8.597656 2.71875 -7.734375 C 2.71875 -6.847656 2.867188 -6.019531 3.171875 -5.25 C 3.472656 -4.476562 3.878906 -3.804688 4.390625 -3.234375 C 4.910156 -2.660156 5.515625 -2.207031 6.203125 -1.875 C 6.890625 -1.539062 7.617188 -1.375 8.390625 -1.375 C 9.171875 -1.375 9.90625 -1.539062 10.59375 -1.875 C 11.28125 -2.207031 11.878906 -2.660156 12.390625 -3.234375 C 12.910156 -3.804688 13.320312 -4.476562 13.625 -5.25 C 13.925781 -6.019531 14.078125 -6.847656 14.078125 -7.734375 C 14.078125 -8.597656 13.925781 -9.414062 13.625 -10.1875 C 13.320312 -10.96875 12.914062 -11.644531 12.40625 -12.21875 C 11.90625 -12.789062 11.304688 -13.242188 10.609375 -13.578125 C 9.921875 -13.910156 9.179688 -14.078125 8.390625 -14.078125 Z M 8.390625 -14.078125 "/></g></g></g><g fill="#3f3f41" fill-opacity="1"><g transform="translate(110.264279, 18.548171)"><g><path d="M 11.984375 -1.375 L 11.984375 0 L 1.96875 0 L 1.96875 -15.453125 L 3.515625 -15.453125 L 3.515625 -1.375 Z M 11.984375 -1.375 "/></g></g></g><g fill="#3f3f41" fill-opacity="1"><g transform="translate(126.604721, 18.548171)"><g><path d="M 1.140625 -7.734375 C 1.140625 -8.828125 1.335938 -9.847656 1.734375 -10.796875 C 2.128906 -11.753906 2.65625 -12.570312 3.3125 -13.25 C 3.976562 -13.925781 4.75 -14.460938 5.625 -14.859375 C 6.5 -15.253906 7.421875 -15.453125 8.390625 -15.453125 C 9.367188 -15.453125 10.296875 -15.253906 11.171875 -14.859375 C 12.046875 -14.460938 12.8125 -13.925781 13.46875 -13.25 C 14.125 -12.570312 14.644531 -11.753906 15.03125 -10.796875 C 15.425781 -9.847656 15.625 -8.828125 15.625 -7.734375 C 15.625 -6.640625 15.425781 -5.617188 15.03125 -4.671875 C 14.644531 -3.722656 14.125 -2.898438 13.46875 -2.203125 C 12.8125 -1.515625 12.046875 -0.972656 11.171875 -0.578125 C 10.296875 -0.191406 9.367188 0 8.390625 0 C 7.421875 0 6.5 -0.191406 5.625 -0.578125 C 4.75 -0.972656 3.976562 -1.515625 3.3125 -2.203125 C 2.65625 -2.898438 2.128906 -3.722656 1.734375 -4.671875 C 1.335938 -5.617188 1.140625 -6.640625 1.140625 -7.734375 Z M 8.390625 -14.078125 C 7.585938 -14.078125 6.84375 -13.90625 6.15625 -13.5625 C 5.476562 -13.21875 4.878906 -12.757812 4.359375 -12.1875 C 3.847656 -11.613281 3.445312 -10.941406 3.15625 -10.171875 C 2.863281 -9.410156 2.71875 -8.597656 2.71875 -7.734375 C 2.71875 -6.847656 2.867188 -6.019531 3.171875 -5.25 C 3.472656 -4.476562 3.878906 -3.804688 4.390625 -3.234375 C 4.910156 -2.660156 5.515625 -2.207031 6.203125 -1.875 C 6.890625 -1.539062 7.617188 -1.375 8.390625 -1.375 C 9.171875 -1.375 9.90625 -1.539062 10.59375 -1.875 C 11.28125 -2.207031 11.878906 -2.660156 12.390625 -3.234375 C 12.910156 -3.804688 13.320312 -4.476562 13.625 -5.25 C 13.925781 -6.019531 14.078125 -6.847656 14.078125 -7.734375 C 14.078125 -8.597656 13.925781 -9.414062 13.625 -10.1875 C 13.320312 -10.96875 12.914062 -11.644531 12.40625 -12.21875 C 11.90625 -12.789062 11.304688 -13.242188 10.609375 -13.578125 C 9.921875 -13.910156 9.179688 -14.078125 8.390625 -14.078125 Z M 8.390625 -14.078125 "/></g></g></g><g fill="#3f3f41" fill-opacity="1"><g transform="translate(147.984241, 18.548171)"><g><path d="M 8.390625 0 C 7.421875 0 6.492188 -0.195312 5.609375 -0.59375 C 4.734375 -1 3.96875 -1.546875 3.3125 -2.234375 C 2.65625 -2.921875 2.128906 -3.734375 1.734375 -4.671875 C 1.335938 -5.617188 1.140625 -6.628906 1.140625 -7.703125 C 1.140625 -8.804688 1.335938 -9.828125 1.734375 -10.765625 C 2.128906 -11.703125 2.65625 -12.515625 3.3125 -13.203125 C 3.976562 -13.898438 4.75 -14.445312 5.625 -14.84375 C 6.5 -15.25 7.421875 -15.453125 8.390625 -15.453125 C 8.929688 -15.453125 9.492188 -15.375 10.078125 -15.21875 C 10.660156 -15.070312 11.222656 -14.835938 11.765625 -14.515625 C 12.316406 -14.203125 12.835938 -13.800781 13.328125 -13.3125 C 13.828125 -12.832031 14.265625 -12.253906 14.640625 -11.578125 L 13.34375 -10.8125 C 12.8125 -11.882812 12.097656 -12.695312 11.203125 -13.25 C 10.304688 -13.800781 9.367188 -14.078125 8.390625 -14.078125 C 7.617188 -14.078125 6.890625 -13.910156 6.203125 -13.578125 C 5.515625 -13.253906 4.910156 -12.804688 4.390625 -12.234375 C 3.878906 -11.660156 3.472656 -10.988281 3.171875 -10.21875 C 2.867188 -9.445312 2.71875 -8.609375 2.71875 -7.703125 C 2.71875 -6.804688 2.867188 -5.972656 3.171875 -5.203125 C 3.472656 -4.429688 3.878906 -3.757812 4.390625 -3.1875 C 4.910156 -2.625 5.515625 -2.179688 6.203125 -1.859375 C 6.890625 -1.535156 7.617188 -1.375 8.390625 -1.375 C 9.367188 -1.375 10.28125 -1.640625 11.125 -2.171875 C 11.976562 -2.703125 12.632812 -3.429688 13.09375 -4.359375 L 13.09375 -7.09375 L 7.578125 -7.09375 L 7.578125 -8.390625 L 14.671875 -8.390625 L 14.671875 -3.921875 C 14.359375 -3.335938 13.972656 -2.800781 13.515625 -2.3125 C 13.066406 -1.832031 12.570312 -1.421875 12.03125 -1.078125 C 11.5 -0.742188 10.921875 -0.476562 10.296875 -0.28125 C 9.671875 -0.09375 9.035156 0 8.390625 0 Z M 8.390625 0 "/></g></g></g><g fill="#3f3f41" fill-opacity="1"><g transform="translate(168.865085, 18.548171)"><g><path d="M 1.96875 0 L 1.96875 -15.453125 L 3.515625 -15.453125 L 3.515625 0 Z M 1.96875 0 "/></g></g></g><g fill="#3f3f41" fill-opacity="1"><g transform="translate(178.970337, 18.548171)"><g><path d="M 0.375 0 L 6.34375 -15.453125 L 8.0625 -15.453125 L 14.03125 0 L 12.328125 0 L 11.078125 -3.3125 L 3.3125 -3.3125 L 2.046875 0 Z M 10.625 -4.609375 L 7.1875 -13.65625 L 3.765625 -4.609375 Z M 10.625 -4.609375 "/></g></g></g><g fill="#3f3f41" fill-opacity="1"><g transform="translate(197.980265, 18.548171)"><g/></g></g><g fill="#3f3f41" fill-opacity="1"><g transform="translate(208.833805, 18.548171)"><g><path d="M 0.375 0 L 6.34375 -15.453125 L 8.0625 -15.453125 L 14.03125 0 L 12.328125 0 L 11.078125 -3.3125 L 3.3125 -3.3125 L 2.046875 0 Z M 10.625 -4.609375 L 7.1875 -13.65625 L 3.765625 -4.609375 Z M 10.625 -4.609375 "/></g></g></g><g fill="#3f3f41" fill-opacity="1"><g transform="translate(227.843734, 18.548171)"><g/></g></g><g fill="#3f3f41" fill-opacity="1"><g transform="translate(238.697274, 18.548171)"><g><path d="M 1.96875 -15.453125 L 13.203125 -15.453125 L 13.203125 -14.078125 L 3.515625 -14.078125 L 3.515625 -8.390625 L 12.203125 -8.390625 L 12.203125 -7.09375 L 3.515625 -7.09375 L 3.515625 0 L 1.96875 0 Z M 1.96875 -15.453125 "/></g></g></g><g fill="#3f3f41" fill-opacity="1"><g transform="translate(255.536071, 18.548171)"><g><path d="M 0.375 0 L 6.34375 -15.453125 L 8.0625 -15.453125 L 14.03125 0 L 12.328125 0 L 11.078125 -3.3125 L 3.3125 -3.3125 L 2.046875 0 Z M 10.625 -4.609375 L 7.1875 -13.65625 L 3.765625 -4.609375 Z M 10.625 -4.609375 "/></g></g></g><g fill="#3f3f41" fill-opacity="1"><g transform="translate(273.023482, 18.548171)"><g><path d="M 2.078125 -15.453125 L 7.234375 -1.921875 L 12.40625 -15.453125 L 14.078125 -15.453125 L 8.03125 0 L 6.4375 0 L 0.40625 -15.453125 Z M 2.078125 -15.453125 "/></g></g></g><g fill="#3f3f41" fill-opacity="1"><g transform="translate(290.835324, 18.548171)"><g><path d="M 1.140625 -7.734375 C 1.140625 -8.828125 1.335938 -9.847656 1.734375 -10.796875 C 2.128906 -11.753906 2.65625 -12.570312 3.3125 -13.25 C 3.976562 -13.925781 4.75 -14.460938 5.625 -14.859375 C 6.5 -15.253906 7.421875 -15.453125 8.390625 -15.453125 C 9.367188 -15.453125 10.296875 -15.253906 11.171875 -14.859375 C 12.046875 -14.460938 12.8125 -13.925781 13.46875 -13.25 C 14.125 -12.570312 14.644531 -11.753906 15.03125 -10.796875 C 15.425781 -9.847656 15.625 -8.828125 15.625 -7.734375 C 15.625 -6.640625 15.425781 -5.617188 15.03125 -4.671875 C 14.644531 -3.722656 14.125 -2.898438 13.46875 -2.203125 C 12.8125 -1.515625 12.046875 -0.972656 11.171875 -0.578125 C 10.296875 -0.191406 9.367188 0 8.390625 0 C 7.421875 0 6.5 -0.191406 5.625 -0.578125 C 4.75 -0.972656 3.976562 -1.515625 3.3125 -2.203125 C 2.65625 -2.898438 2.128906 -3.722656 1.734375 -4.671875 C 1.335938 -5.617188 1.140625 -6.640625 1.140625 -7.734375 Z M 8.390625 -14.078125 C 7.585938 -14.078125 6.84375 -13.90625 6.15625 -13.5625 C 5.476562 -13.21875 4.878906 -12.757812 4.359375 -12.1875 C 3.847656 -11.613281 3.445312 -10.941406 3.15625 -10.171875 C 2.863281 -9.410156 2.71875 -8.597656 2.71875 -7.734375 C 2.71875 -6.847656 2.867188 -6.019531 3.171875 -5.25 C 3.472656 -4.476562 3.878906 -3.804688 4.390625 -3.234375 C 4.910156 -2.660156 5.515625 -2.207031 6.203125 -1.875 C 6.890625 -1.539062 7.617188 -1.375 8.390625 -1.375 C 9.171875 -1.375 9.90625 -1.539062 10.59375 -1.875 C 11.28125 -2.207031 11.878906 -2.660156 12.390625 -3.234375 C 12.910156 -3.804688 13.320312 -4.476562 13.625 -5.25 C 13.925781 -6.019531 14.078125 -6.847656 14.078125 -7.734375 C 14.078125 -8.597656 13.925781 -9.414062 13.625 -10.1875 C 13.320312 -10.96875 12.914062 -11.644531 12.40625 -12.21875 C 11.90625 -12.789062 11.304688 -13.242188 10.609375 -13.578125 C 9.921875 -13.910156 9.179688 -14.078125 8.390625 -14.078125 Z M 8.390625 -14.078125 "/></g></g></g><g fill="#3f3f41" fill-opacity="1"><g transform="translate(312.214861, 18.548171)"><g><path d="M 1.96875 0 L 1.96875 -15.453125 L 8.765625 -15.453125 C 9.410156 -15.453125 10.015625 -15.34375 10.578125 -15.125 C 11.140625 -14.90625 11.628906 -14.59375 12.046875 -14.1875 C 12.460938 -13.789062 12.785156 -13.320312 13.015625 -12.78125 C 13.253906 -12.25 13.375 -11.65625 13.375 -11 C 13.375 -10.40625 13.269531 -9.847656 13.0625 -9.328125 C 12.851562 -8.816406 12.566406 -8.367188 12.203125 -7.984375 C 11.835938 -7.597656 11.410156 -7.289062 10.921875 -7.0625 C 10.429688 -6.84375 9.898438 -6.71875 9.328125 -6.6875 L 13.375 0 L 11.578125 0 L 7.5625 -6.609375 L 3.515625 -6.609375 L 3.515625 0 Z M 3.515625 -7.90625 L 8.765625 -7.90625 C 9.191406 -7.90625 9.585938 -7.988281 9.953125 -8.15625 C 10.316406 -8.320312 10.640625 -8.539062 10.921875 -8.8125 C 11.210938 -9.09375 11.4375 -9.421875 11.59375 -9.796875 C 11.75 -10.179688 11.828125 -10.582031 11.828125 -11 C 11.828125 -11.414062 11.75 -11.8125 11.59375 -12.1875 C 11.4375 -12.5625 11.210938 -12.882812 10.921875 -13.15625 C 10.640625 -13.4375 10.316406 -13.660156 9.953125 -13.828125 C 9.585938 -13.992188 9.191406 -14.078125 8.765625 -14.078125 L 3.515625 -14.078125 Z M 3.515625 -7.90625 "/></g></g></g><g fill="#3f3f41" fill-opacity="1"><g transform="translate(331.399389, 18.548171)"><g/></g></g><g fill="#3f3f41" fill-opacity="1"><g transform="translate(342.252929, 18.548171)"><g><path d="M 1.96875 0 L 1.96875 -15.453125 L 7.53125 -15.453125 C 8.476562 -15.453125 9.359375 -15.242188 10.171875 -14.828125 C 10.992188 -14.421875 11.710938 -13.867188 12.328125 -13.171875 C 12.941406 -12.472656 13.421875 -11.65625 13.765625 -10.71875 C 14.117188 -9.789062 14.296875 -8.796875 14.296875 -7.734375 C 14.296875 -6.671875 14.117188 -5.664062 13.765625 -4.71875 C 13.421875 -3.78125 12.941406 -2.960938 12.328125 -2.265625 C 11.722656 -1.566406 11.007812 -1.015625 10.1875 -0.609375 C 9.363281 -0.203125 8.488281 0 7.5625 0 Z M 3.515625 -14.078125 L 3.515625 -1.375 L 7.359375 -1.375 C 8.109375 -1.375 8.8125 -1.539062 9.46875 -1.875 C 10.125 -2.21875 10.691406 -2.675781 11.171875 -3.25 C 11.660156 -3.832031 12.046875 -4.507812 12.328125 -5.28125 C 12.609375 -6.050781 12.75 -6.867188 12.75 -7.734375 C 12.75 -8.597656 12.609375 -9.414062 12.328125 -10.1875 C 12.046875 -10.96875 11.660156 -11.644531 11.171875 -12.21875 C 10.691406 -12.789062 10.125 -13.242188 9.46875 -13.578125 C 8.8125 -13.910156 8.109375 -14.078125 7.359375 -14.078125 Z M 3.515625 -14.078125 "/></g></g></g><g fill="#3f3f41" fill-opacity="1"><g transform="translate(362.335416, 18.548171)"><g><path d="M 1.140625 -7.734375 C 1.140625 -8.828125 1.335938 -9.847656 1.734375 -10.796875 C 2.128906 -11.753906 2.65625 -12.570312 3.3125 -13.25 C 3.976562 -13.925781 4.75 -14.460938 5.625 -14.859375 C 6.5 -15.253906 7.421875 -15.453125 8.390625 -15.453125 C 9.367188 -15.453125 10.296875 -15.253906 11.171875 -14.859375 C 12.046875 -14.460938 12.8125 -13.925781 13.46875 -13.25 C 14.125 -12.570312 14.644531 -11.753906 15.03125 -10.796875 C 15.425781 -9.847656 15.625 -8.828125 15.625 -7.734375 C 15.625 -6.640625 15.425781 -5.617188 15.03125 -4.671875 C 14.644531 -3.722656 14.125 -2.898438 13.46875 -2.203125 C 12.8125 -1.515625 12.046875 -0.972656 11.171875 -0.578125 C 10.296875 -0.191406 9.367188 0 8.390625 0 C 7.421875 0 6.5 -0.191406 5.625 -0.578125 C 4.75 -0.972656 3.976562 -1.515625 3.3125 -2.203125 C 2.65625 -2.898438 2.128906 -3.722656 1.734375 -4.671875 C 1.335938 -5.617188 1.140625 -6.640625 1.140625 -7.734375 Z M 8.390625 -14.078125 C 7.585938 -14.078125 6.84375 -13.90625 6.15625 -13.5625 C 5.476562 -13.21875 4.878906 -12.757812 4.359375 -12.1875 C 3.847656 -11.613281 3.445312 -10.941406 3.15625 -10.171875 C 2.863281 -9.410156 2.71875 -8.597656 2.71875 -7.734375 C 2.71875 -6.847656 2.867188 -6.019531 3.171875 -5.25 C 3.472656 -4.476562 3.878906 -3.804688 4.390625 -3.234375 C 4.910156 -2.660156 5.515625 -2.207031 6.203125 -1.875 C 6.890625 -1.539062 7.617188 -1.375 8.390625 -1.375 C 9.171875 -1.375 9.90625 -1.539062 10.59375 -1.875 C 11.28125 -2.207031 11.878906 -2.660156 12.390625 -3.234375 C 12.910156 -3.804688 13.320312 -4.476562 13.625 -5.25 C 13.925781 -6.019531 14.078125 -6.847656 14.078125 -7.734375 C 14.078125 -8.597656 13.925781 -9.414062 13.625 -10.1875 C 13.320312 -10.96875 12.914062 -11.644531 12.40625 -12.21875 C 11.90625 -12.789062 11.304688 -13.242188 10.609375 -13.578125 C 9.921875 -13.910156 9.179688 -14.078125 8.390625 -14.078125 Z M 8.390625 -14.078125 "/></g></g></g><g fill="#3f3f41" fill-opacity="1"><g transform="translate(383.714918, 18.548171)"><g/></g></g><g fill="#3f3f41" fill-opacity="1"><g transform="translate(394.568458, 18.548171)"><g><path d="M 0.375 0 L 6.34375 -15.453125 L 8.0625 -15.453125 L 14.03125 0 L 12.328125 0 L 11.078125 -3.3125 L 3.3125 -3.3125 L 2.046875 0 Z M 10.625 -4.609375 L 7.1875 -13.65625 L 3.765625 -4.609375 Z M 10.625 -4.609375 "/></g></g></g><g fill="#3f3f41" fill-opacity="1"><g transform="translate(413.578386, 18.548171)"><g><path d="M 1.96875 0 L 1.96875 -15.453125 L 8.765625 -15.453125 C 9.410156 -15.453125 10.015625 -15.34375 10.578125 -15.125 C 11.140625 -14.90625 11.628906 -14.59375 12.046875 -14.1875 C 12.460938 -13.789062 12.785156 -13.320312 13.015625 -12.78125 C 13.253906 -12.25 13.375 -11.65625 13.375 -11 C 13.375 -10.40625 13.269531 -9.847656 13.0625 -9.328125 C 12.851562 -8.816406 12.566406 -8.367188 12.203125 -7.984375 C 11.835938 -7.597656 11.410156 -7.289062 10.921875 -7.0625 C 10.429688 -6.84375 9.898438 -6.71875 9.328125 -6.6875 L 13.375 0 L 11.578125 0 L 7.5625 -6.609375 L 3.515625 -6.609375 L 3.515625 0 Z M 3.515625 -7.90625 L 8.765625 -7.90625 C 9.191406 -7.90625 9.585938 -7.988281 9.953125 -8.15625 C 10.316406 -8.320312 10.640625 -8.539062 10.921875 -8.8125 C 11.210938 -9.09375 11.4375 -9.421875 11.59375 -9.796875 C 11.75 -10.179688 11.828125 -10.582031 11.828125 -11 C 11.828125 -11.414062 11.75 -11.8125 11.59375 -12.1875 C 11.4375 -12.5625 11.210938 -12.882812 10.921875 -13.15625 C 10.640625 -13.4375 10.316406 -13.660156 9.953125 -13.828125 C 9.585938 -13.992188 9.191406 -14.078125 8.765625 -14.078125 L 3.515625 -14.078125 Z M 3.515625 -7.90625 "/></g></g></g><g fill="#3f3f41" fill-opacity="1"><g transform="translate(432.588208, 18.548171)"><g><path d="M 1.140625 -7.734375 C 1.140625 -8.816406 1.332031 -9.820312 1.71875 -10.75 C 2.101562 -11.6875 2.625 -12.503906 3.28125 -13.203125 C 3.9375 -13.898438 4.703125 -14.445312 5.578125 -14.84375 C 6.453125 -15.25 7.378906 -15.453125 8.359375 -15.453125 C 9.359375 -15.453125 10.296875 -15.25 11.171875 -14.84375 C 12.046875 -14.445312 12.8125 -13.898438 13.46875 -13.203125 C 14.132812 -12.503906 14.660156 -11.6875 15.046875 -10.75 C 15.429688 -9.820312 15.625 -8.816406 15.625 -7.734375 C 15.625 -6.597656 15.414062 -5.546875 15 -4.578125 C 14.59375 -3.609375 14.035156 -2.773438 13.328125 -2.078125 L 16.421875 1.703125 L 14.59375 1.703125 L 12.078125 -1.265625 C 11.546875 -0.867188 10.972656 -0.554688 10.359375 -0.328125 C 9.742188 -0.109375 9.085938 0 8.390625 0 C 7.390625 0 6.453125 -0.203125 5.578125 -0.609375 C 4.703125 -1.015625 3.9375 -1.566406 3.28125 -2.265625 C 2.625 -2.960938 2.101562 -3.78125 1.71875 -4.71875 C 1.332031 -5.664062 1.140625 -6.671875 1.140625 -7.734375 Z M 2.71875 -7.734375 C 2.71875 -6.847656 2.867188 -6.019531 3.171875 -5.25 C 3.472656 -4.476562 3.875 -3.804688 4.375 -3.234375 C 4.882812 -2.660156 5.484375 -2.207031 6.171875 -1.875 C 6.867188 -1.539062 7.609375 -1.375 8.390625 -1.375 C 9.171875 -1.375 9.90625 -1.539062 10.59375 -1.875 C 11.28125 -2.207031 11.878906 -2.660156 12.390625 -3.234375 C 12.910156 -3.804688 13.316406 -4.476562 13.609375 -5.25 C 13.898438 -6.019531 14.046875 -6.847656 14.046875 -7.734375 C 14.046875 -8.617188 13.898438 -9.441406 13.609375 -10.203125 C 13.316406 -10.972656 12.910156 -11.644531 12.390625 -12.21875 C 11.878906 -12.789062 11.28125 -13.242188 10.59375 -13.578125 C 9.90625 -13.910156 9.171875 -14.078125 8.390625 -14.078125 C 7.609375 -14.078125 6.867188 -13.910156 6.171875 -13.578125 C 5.484375 -13.242188 4.882812 -12.789062 4.375 -12.21875 C 3.875 -11.644531 3.472656 -10.972656 3.171875 -10.203125 C 2.867188 -9.441406 2.71875 -8.617188 2.71875 -7.734375 Z M 2.71875 -7.734375 "/></g></g></g><g fill="#3f3f41" fill-opacity="1"><g transform="translate(453.89282, 18.548171)"><g><path d="M 1.828125 -15.453125 L 3.375 -15.453125 L 3.375 -6.03125 C 3.375 -5.375 3.5 -4.753906 3.75 -4.171875 C 4.007812 -3.597656 4.351562 -3.101562 4.78125 -2.6875 C 5.21875 -2.28125 5.734375 -1.957031 6.328125 -1.71875 C 6.921875 -1.488281 7.539062 -1.375 8.1875 -1.375 C 8.832031 -1.375 9.445312 -1.488281 10.03125 -1.71875 C 10.613281 -1.957031 11.117188 -2.28125 11.546875 -2.6875 C 11.984375 -3.101562 12.328125 -3.597656 12.578125 -4.171875 C 12.835938 -4.753906 12.96875 -5.375 12.96875 -6.03125 L 12.96875 -15.453125 L 14.546875 -15.453125 L 14.546875 -6.03125 C 14.546875 -5.207031 14.382812 -4.425781 14.0625 -3.6875 C 13.75 -2.957031 13.3125 -2.316406 12.75 -1.765625 C 12.1875 -1.222656 11.515625 -0.789062 10.734375 -0.46875 C 9.960938 -0.15625 9.113281 0 8.1875 0 C 7.269531 0 6.421875 -0.15625 5.640625 -0.46875 C 4.859375 -0.789062 4.179688 -1.222656 3.609375 -1.765625 C 3.046875 -2.316406 2.609375 -2.957031 2.296875 -3.6875 C 1.984375 -4.425781 1.828125 -5.207031 1.828125 -6.03125 Z M 1.828125 -15.453125 "/></g></g></g><g fill="#3f3f41" fill-opacity="1"><g transform="translate(474.873232, 18.548171)"><g><path d="M 1.96875 0 L 1.96875 -15.453125 L 3.515625 -15.453125 L 3.515625 0 Z M 1.96875 0 "/></g></g></g><g fill="#3f3f41" fill-opacity="1"><g transform="translate(485.477711, 18.548171)"><g><path d="M 0.21875 -15.453125 L 12.953125 -15.453125 L 12.953125 -14.078125 L 7.359375 -14.078125 L 7.359375 0 L 5.8125 0 L 5.8125 -14.078125 L 0.21875 -14.078125 Z M 0.21875 -15.453125 "/></g></g></g><g fill="#3f3f41" fill-opacity="1"><g transform="translate(503.764598, 18.548171)"><g><path d="M 1.96875 -15.453125 L 12.703125 -15.453125 L 12.703125 -14.078125 L 3.515625 -14.078125 L 3.515625 -8.390625 L 11.5 -8.390625 L 11.5 -7.09375 L 3.515625 -7.09375 L 3.515625 -1.375 L 12.703125 -1.375 L 12.703125 0 L 1.96875 0 Z M 1.96875 -15.453125 "/></g></g></g><g fill="#3f3f41" fill-opacity="1"><g transform="translate(522.949588, 18.548171)"><g><path d="M 0.21875 -15.453125 L 12.953125 -15.453125 L 12.953125 -14.078125 L 7.359375 -14.078125 L 7.359375 0 L 5.8125 0 L 5.8125 -14.078125 L 0.21875 -14.078125 Z M 0.21875 -15.453125 "/></g></g></g><g fill="#3f3f41" fill-opacity="1"><g transform="translate(540.288056, 18.548171)"><g><path d="M 1.140625 -7.734375 C 1.140625 -8.828125 1.335938 -9.847656 1.734375 -10.796875 C 2.128906 -11.753906 2.65625 -12.570312 3.3125 -13.25 C 3.976562 -13.925781 4.75 -14.460938 5.625 -14.859375 C 6.5 -15.253906 7.421875 -15.453125 8.390625 -15.453125 C 9.367188 -15.453125 10.296875 -15.253906 11.171875 -14.859375 C 12.046875 -14.460938 12.8125 -13.925781 13.46875 -13.25 C 14.125 -12.570312 14.644531 -11.753906 15.03125 -10.796875 C 15.425781 -9.847656 15.625 -8.828125 15.625 -7.734375 C 15.625 -6.640625 15.425781 -5.617188 15.03125 -4.671875 C 14.644531 -3.722656 14.125 -2.898438 13.46875 -2.203125 C 12.8125 -1.515625 12.046875 -0.972656 11.171875 -0.578125 C 10.296875 -0.191406 9.367188 0 8.390625 0 C 7.421875 0 6.5 -0.191406 5.625 -0.578125 C 4.75 -0.972656 3.976562 -1.515625 3.3125 -2.203125 C 2.65625 -2.898438 2.128906 -3.722656 1.734375 -4.671875 C 1.335938 -5.617188 1.140625 -6.640625 1.140625 -7.734375 Z M 8.390625 -14.078125 C 7.585938 -14.078125 6.84375 -13.90625 6.15625 -13.5625 C 5.476562 -13.21875 4.878906 -12.757812 4.359375 -12.1875 C 3.847656 -11.613281 3.445312 -10.941406 3.15625 -10.171875 C 2.863281 -9.410156 2.71875 -8.597656 2.71875 -7.734375 C 2.71875 -6.847656 2.867188 -6.019531 3.171875 -5.25 C 3.472656 -4.476562 3.878906 -3.804688 4.390625 -3.234375 C 4.910156 -2.660156 5.515625 -2.207031 6.203125 -1.875 C 6.890625 -1.539062 7.617188 -1.375 8.390625 -1.375 C 9.171875 -1.375 9.90625 -1.539062 10.59375 -1.875 C 11.28125 -2.207031 11.878906 -2.660156 12.390625 -3.234375 C 12.910156 -3.804688 13.320312 -4.476562 13.625 -5.25 C 13.925781 -6.019531 14.078125 -6.847656 14.078125 -7.734375 C 14.078125 -8.597656 13.925781 -9.414062 13.625 -10.1875 C 13.320312 -10.96875 12.914062 -11.644531 12.40625 -12.21875 C 11.90625 -12.789062 11.304688 -13.242188 10.609375 -13.578125 C 9.921875 -13.910156 9.179688 -14.078125 8.390625 -14.078125 Z M 8.390625 -14.078125 "/></g></g></g></g></g></svg>